PathFileType	4	(X/Y/Z)	Patient4_TMGait_0pt4_02_left_40.trc.trc
DataRate	CameraRate	NumFrames	NumMarkers	Units	OrigDataRate	OrigDataStartFrame	OrigNumFrames
79.545454545455	79.545454545455	5	33	mm	79.545454545455	106	       141
Frame#	Time	Sacral			L.Shoulder			Chest			R.Shoulder			Neck			R.ASIS			L.ASIS			R.Thigh.Superior			R.Thigh.Lateral			R.Thigh.Inferior			R.Patella			L.Thigh.Superior			L.Thigh.Lateral			L.Thigh.Inferior			L.Patella			L.Shank.Superior			L.Shank.Lateral			L.Shank.Inferior			R.Shank.Superior			R.Shank.Lateral			R.Shank.Inferior			R.Heel			R.Midfoot.Superior			R.Midfoot.Lateral			R.Toe			L.Heel			L.Midfoot.Lateral			L.Midfoot.Superior			L.Toe			L.Elbow			L.Wrist			R.Elbow			R.Wrist			
		X1	Y1	Z1	X2	Y2	Z2	X3	Y3	Z3	X4	Y4	Z4	X5	Y5	Z5	X6	Y6	Z6	X7	Y7	Z7	X8	Y8	Z8	X9	Y9	Z9	X10	Y10	Z10	X11	Y11	Z11	X12	Y12	Z12	X13	Y13	Z13	X14	Y14	Z14	X15	Y15	Z15	X16	Y16	Z16	X17	Y17	Z17	X18	Y18	Z18	X19	Y19	Z19	X20	Y20	Z20	X21	Y21	Z21	X22	Y22	Z22	X23	Y23	Z23	X24	Y24	Z24	X25	Y25	Z25	X26	Y26	Z26	X27	Y27	Z27	X28	Y28	Z28	X29	Y29	Z29	X30	Y30	Z30	X31	Y31	Z31	X32	Y32	Z32	X33	Y33	Z33	

106	54.720000000000	856.547664759480	1004.898580420808	547.931310796153	1007.219600171228	1435.433922041415	351.559990428608	1130.408878355749	1370.208492960706	499.075964453361	1067.920448911304	1439.753477233337	683.389497997401	1006.749609497533	1496.827587787433	510.631055667436	1097.692037462684	941.111048730249	636.934043025622	1052.045396647706	969.895565532277	367.846716955406	1128.489950558360	737.396812721739	598.698574767319	1051.669369503819	630.486577380806	669.337351430885	1115.489108420175	576.373570791994	580.332506012606	1112.076799728436	487.740048064027	586.744561059597	1143.141135633532	789.325212399615	390.493980330057	1100.805156343671	660.958240787812	312.787004062916	1208.316401464113	603.489550039354	371.439240036355	1228.856327864828	520.267408537813	361.019250684477	1178.407681268108	447.873737320806	350.441287716164	1053.632434269293	369.295016993644	303.063796971063	1083.474758528230	238.904075736122	349.912394185655	1079.526403788823	399.530329134508	598.105257583343	1007.912054467876	300.403320185275	666.675338654482	1037.134602890338	203.397431840597	601.376601099724	893.193692892496	42.980155620525	583.640441584858	1065.086866325142	96.658495071669	610.204084872254	979.427193498189	36.960103935306	655.025917253727	1186.855152888914	44.896931522567	634.348374987445	926.900175633101	112.874147131956	391.269880895914	989.058786773431	96.673260292456	303.566045583831	1086.647117935951	138.497142223240	321.530313126627	1194.834473458194	63.626010804703	276.421915960730	948.051796991223	1082.721448831940	247.904269674423	997.845275685677	827.444884114078	228.969567478474	1125.626967209608	1100.182022754760	815.093571436916	1346.549077792033	978.222120505171	761.100943607770	
107	54.732571428571	856.408122409998	1005.442600582127	549.276782477223	1006.734271982488	1435.223494988248	351.702090513772	1130.964739929528	1369.927369824807	498.257799194059	1070.291210224817	1440.093910652812	682.961381708068	1007.711201172769	1496.862629005420	510.518027192992	1097.936430705601	940.786931652812	636.482286038897	1050.690728175494	970.313729067527	367.716301923378	1127.019327285630	736.708317147523	597.782407441497	1050.098345939452	630.400592915727	669.264874142145	1112.626563740073	575.851930029010	579.745165473602	1108.643288581127	487.201651828226	586.301244790806	1142.633054223268	791.153823192548	391.495569499854	1102.317605514363	662.530562541550	313.373686712351	1209.401781545367	605.965367260804	373.587927353296	1231.704967979517	523.875213077293	362.859444275358	1184.079620918919	450.750888148190	351.638065991845	1063.449958699108	366.632685628366	303.206574866822	1099.125503298381	237.417989083051	349.985949597189	1075.799800715659	399.145174147416	597.830026163240	1004.026042568134	300.252261568042	666.643075027059	1032.609328245641	203.172139119754	601.227642793352	888.106273116204	42.974119036433	583.678693296222	1060.028848916479	96.638681531630	610.130430338567	974.364566016140	36.951564866892	655.061644037769	1181.779442652128	44.840915992775	634.298762069608	948.471444399599	103.717457390503	390.125991765198	1011.939570955621	90.845999236560	302.797766747170	1107.290547357196	137.270341727184	321.503210345606	1219.321277141198	67.860671907825	276.950154328135	942.375942434409	1083.151235169391	249.687777409814	979.245694849535	826.131933612799	230.164489402109	1134.650405965712	1102.119523671343	814.143005102401	1361.587355109535	995.648201670513	754.996934803423	
108	54.745142857143	856.265510083331	1005.972759047943	550.388993520673	1006.430225286944	1434.988138790355	351.659137896521	1131.608785729825	1369.551626029370	497.297981847473	1072.695825046652	1440.340755282746	682.356226036396	1008.768591498047	1496.847879313625	510.232260518634	1098.116504277010	940.449304088228	635.957942241847	1049.446715136356	970.593162123807	367.486159909200	1125.517621290158	735.990254583144	596.956115739903	1048.446519713667	630.304967086599	669.206804888171	1109.743420065650	575.321417348836	579.229233281852	1105.159242388330	486.661690866828	585.935055435040	1141.987338868194	792.692075414127	392.470915294410	1103.564220854176	663.858992213221	313.893860184434	1210.153847099127	608.108547132844	375.612751847440	1234.151631852471	527.218589805902	364.693350782579	1189.335721246655	453.459099277127	352.959858365167	1073.156996666521	364.060762202351	303.253377678683	1114.274726000720	236.315847930574	350.316065529529	1072.039002209573	398.767670764661	597.620192086753	1000.080417680245	300.103137894084	666.640884985586	1028.061510983941	202.953343669987	601.126117961819	883.009626105229	42.969738008655	583.719355809493	1054.967825593616	96.620271598041	610.072918716138	969.300354137160	36.936202476729	655.102359144560	1176.702697070336	44.794805809207	634.267586573172	969.598019127548	95.465892550316	388.967784005985	1034.484426412202	85.764978661973	302.270536974364	1127.369043912258	136.609846891213	321.936405953082	1243.019589629700	72.606420508792	278.460232640525	936.679949703226	1083.782892645974	251.103028880655	961.683193700507	825.713413349433	231.473143148391	1143.406846603051	1104.016066651293	812.811346912423	1375.174012100214	1013.368357134139	748.581224908042	
109	54.757714285714	856.147203255351	1006.481197870162	551.265681811559	1006.321002417598	1434.740366038247	351.427172995229	1132.337502236902	1369.094753250478	496.209930103048	1075.099069166407	1440.498412215915	681.580457484256	1009.915076301531	1496.792072756238	509.780069973734	1098.247514044173	940.103302150736	635.375677676931	1048.343059989877	970.745636762063	367.154909754616	1124.015942656147	735.246444272898	596.235057625440	1046.711827754884	630.192561946184	669.150963506456	1106.861840105155	574.773042868723	578.783480258593	1101.643617159793	486.120679559589	585.630860572872	1141.245312436262	793.952499876260	393.392072352121	1104.553397204997	664.929444354467	314.356998416992	1210.645941338401	609.928615119432	377.436560483549	1236.235391415228	530.282029578328	366.481345231055	1194.172528815142	455.971880630392	354.383407551466	1082.658272688527	361.641174552009	303.218730305161	1128.731113361465	235.601504002425	350.903026024926	1068.256535886197	398.393388989485	597.456149678911	996.089076275083	299.960227603514	666.657017945512	1023.498292077962	202.741361612258	601.060140737938	877.908184653220	42.969113172630	583.762088984829	1049.905558910907	96.604937408037	610.031907721089	964.234761527483	36.916080325501	655.144282104521	1171.625360000113	44.758544652618	634.255646899168	989.971419142284	88.209108572876	387.844166305541	1056.364256230412	81.481332304424	302.012912708147	1146.603410440025	136.502710074399	322.817134419800	1265.601599015369	77.773433933138	280.901999700033	930.955431989295	1084.632827928533	252.168595512928	945.298106647694	826.058846176834	232.858699370742	1151.902173950324	1105.848938771150	811.088672380876	1387.288831134734	1031.185698556197	741.903049168209	
110	54.770285714286	856.081537328060	1006.958943252628	551.907628322246	1006.408990618276	1434.489956383019	351.006793355728	1133.143548831835	1368.574976042868	495.007979602163	1077.465403655882	1440.577788434545	680.642190355713	1011.137437683616	1496.704563308777	509.166159145706	1098.351739052369	939.755501107177	634.747405246346	1047.411180672192	970.786657119058	366.719077752570	1122.539062174772	734.481799417958	595.625086825691	1044.891923736470	630.058379440077	669.084469346084	1103.998012176910	574.198309326678	578.403236650429	1098.114038419628	485.579672310699	585.374797884170	1140.461310441485	794.947181500544	394.220004418959	1105.296030893430	665.724612574392	314.776588615157	1210.944193399938	611.423730209181	379.000850461542	1237.980687058872	533.036345027442	368.194507891755	1198.573886475079	458.248168056379	355.879956201046	1091.825353289382	359.398795820119	303.135018650723	1142.308809364372	235.228642830362	351.735122188624	1064.461257350221	398.017727295831	597.318361870774	992.063669192008	299.828471391264	666.680560695764	1018.925205307811	202.537268764247	601.018321734221	872.806116577206	42.974765622548	583.806316507145	1044.844136184911	96.594125963022	610.007421148937	959.167703326676	36.893176442373	655.183362737440	1166.547391998110	44.731379707099	634.261763045072	1009.298711637160	81.946621766426	386.823095929246	1077.247122144572	77.969892547382	302.047717009469	1164.724614615484	136.876957029637	324.105435428245	1286.762191799389	83.223042983751	284.149085676159	925.215088751412	1085.706051076910	252.915965246355	930.179511269342	827.025317855988	234.275522093473	1160.134836447547	1107.606276648062	808.969272024802	1397.936724254864	1048.905067799494	735.011185200755	
